<svg id="svg" version="1.1" xmlns="http://www.w3.org/2000/svg" xmlns:xlink="http://www.w3.org/1999/xlink" width="400" height="400" viewBox="0, 0, 400,400"><g id="svgg"><path id="path0" d="M187.667 8.220 C 108.922 13.675,43.783 61.143,15.500 133.681 C -15.392 212.912,9.605 306.525,75.833 359.626 C 97.847 377.276,129.230 391.686,135.958 387.234 C 137.727 386.064,137.288 387.054,151.104 353.000 C 157.613 336.958,164.249 320.608,165.851 316.667 C 167.453 312.725,170.224 305.900,172.009 301.500 C 178.346 285.875,181.634 277.790,182.989 274.500 C 185.713 267.882,184.516 264.688,178.498 262.523 C 160.857 256.178,149.397 243.245,144.671 224.349 C 137.750 196.681,146.232 172.245,167.667 158.100 C 206.359 132.567,257.648 159.866,257.665 206.002 C 257.675 233.693,246.826 250.993,223.189 260.978 C 213.782 264.952,213.579 263.005,226.985 297.458 C 265.732 397.034,261.387 386.251,263.268 387.496 C 266.269 389.482,271.503 388.423,285.000 383.098 C 360.898 353.158,409.532 260.605,395.175 173.430 C 378.761 73.769,287.725 1.289,187.667 8.220 M209.667 21.334 C 329.357 28.476,410.210 142.445,377.140 257.401 C 363.339 305.377,330.052 346.785,289.167 366.839 C 282.123 370.294,271.329 374.513,270.896 373.980 C 270.678 373.712,231.333 272.396,231.333 272.103 C 231.333 271.945,232.646 271.169,234.250 270.379 C 257.036 259.157,268.834 239.992,270.715 211.144 C 274.032 160.265,225.800 123.001,177.317 138.984 C 146.580 149.116,127.172 177.716,129.286 209.760 C 131.229 239.202,143.581 260.139,165.569 271.261 C 167.641 272.309,169.276 273.317,169.203 273.500 C 166.747 279.659,128.546 373.545,128.456 373.643 C 127.733 374.432,112.162 367.749,104.500 363.362 C 55.951 335.560,21.597 280.440,16.186 221.667 C 5.887 109.807,97.782 14.658,209.667 21.334 " stroke="none" fill="#3c542c" fill-rule="evenodd"></path><path id="path1" d="M368.388 352.517 C 348.924 359.147,353.623 388.000,374.167 388.000 C 392.667 388.000,399.348 363.635,383.485 354.020 C 379.386 351.537,373.103 350.911,368.388 352.517 M378.191 357.647 C 386.352 360.515,389.499 370.144,384.602 377.261 L 383.582 378.743 381.874 375.478 C 380.935 373.682,379.717 371.733,379.167 371.148 L 378.167 370.083 379.096 369.550 C 381.159 368.366,381.960 364.173,380.643 361.451 C 379.459 359.005,378.265 358.523,373.000 358.364 L 368.500 358.229 370.333 357.635 C 372.797 356.836,375.899 356.841,378.191 357.647 M366.667 369.833 C 366.667 375.425,366.546 380.000,366.399 380.000 C 365.456 380.000,362.904 376.349,362.027 373.747 C 360.510 369.243,361.646 364.465,365.118 360.750 C 365.675 360.154,366.251 359.667,366.399 359.667 C 366.546 359.667,366.667 364.242,366.667 369.833 M376.007 361.503 C 377.269 362.156,377.667 362.945,377.667 364.793 C 377.667 367.505,375.922 368.612,371.583 368.652 L 370.000 368.667 370.000 364.833 L 370.000 361.000 372.517 361.000 C 374.109 361.000,375.391 361.185,376.007 361.503 M376.144 372.312 C 377.184 373.289,380.785 380.212,380.559 380.800 C 379.966 382.346,373.540 383.077,370.239 381.974 C 367.632 381.102,367.141 380.667,368.767 380.667 L 370.000 380.667 370.000 375.965 L 370.000 371.263 372.641 371.383 C 374.884 371.485,375.412 371.625,376.144 372.312 " stroke="none" fill="#040404" fill-rule="evenodd"></path><path id="path2" d="M185.167 21.703 C 70.908 30.294,-7.426 140.550,21.665 251.833 C 36.146 307.230,77.228 355.405,124.470 372.387 C 126.470 373.106,128.211 373.575,128.340 373.430 C 128.575 373.165,168.646 274.602,168.899 273.667 C 168.994 273.315,168.066 272.689,165.767 271.554 C 143.161 260.393,129.962 237.274,129.102 207.333 C 127.333 145.741,199.785 112.199,246.980 152.761 C 263.050 166.573,271.570 186.548,270.893 208.825 C 269.995 238.374,258.013 258.608,234.384 270.474 L 231.340 272.003 231.834 273.252 C 232.106 273.938,241.014 296.822,251.630 324.104 C 262.245 351.386,271.004 373.782,271.094 373.872 C 271.184 373.962,273.488 373.221,276.212 372.226 C 342.829 347.883,389.435 270.336,384.025 192.833 C 376.888 90.576,287.881 13.980,185.167 21.703 " stroke="none" fill="#6ca34c" fill-rule="evenodd"></path><path id="path3" d="M195.750 21.249 C 197.721 21.308,200.946 21.308,202.917 21.249 C 204.887 21.190,203.275 21.142,199.333 21.142 C 195.392 21.142,193.779 21.190,195.750 21.249 M186.583 21.569 C 186.996 21.648,187.671 21.648,188.083 21.569 C 188.496 21.489,188.158 21.424,187.333 21.424 C 186.508 21.424,186.171 21.489,186.583 21.569 M210.583 21.569 C 210.996 21.648,211.671 21.648,212.083 21.569 C 212.496 21.489,212.158 21.424,211.333 21.424 C 210.508 21.424,210.171 21.489,210.583 21.569 M75.315 68.917 L 74.167 70.167 75.417 69.018 C 76.580 67.949,76.820 67.667,76.565 67.667 C 76.510 67.667,75.947 68.229,75.315 68.917 M323.000 68.104 C 323.000 68.162,323.487 68.649,324.083 69.188 L 325.167 70.167 324.188 69.083 C 323.275 68.074,323.000 67.847,323.000 68.104 M68.993 74.917 L 65.833 78.167 69.083 75.007 C 72.102 72.072,72.485 71.667,72.243 71.667 C 72.194 71.667,70.731 73.129,68.993 74.917 M330.500 75.333 C 332.510 77.350,334.230 79.000,334.322 79.000 C 334.414 79.000,332.844 77.350,330.833 75.333 C 328.823 73.317,327.103 71.667,327.011 71.667 C 326.920 71.667,328.490 73.317,330.500 75.333 M62.982 81.250 L 61.833 82.500 63.083 81.351 C 64.247 80.282,64.487 80.000,64.232 80.000 C 64.176 80.000,63.614 80.563,62.982 81.250 M198.069 135.247 C 199.298 135.311,201.398 135.311,202.735 135.248 C 204.073 135.184,203.067 135.132,200.500 135.132 C 197.933 135.131,196.839 135.183,198.069 135.247 M247.667 153.425 C 247.667 153.475,248.829 154.638,250.250 156.008 L 252.833 158.500 250.342 155.917 C 248.027 153.517,247.667 153.181,247.667 153.425 M149.000 156.167 C 147.634 157.542,146.592 158.667,146.683 158.667 C 146.775 158.667,147.968 157.542,149.333 156.167 C 150.699 154.792,151.742 153.667,151.650 153.667 C 151.558 153.667,150.366 154.792,149.000 156.167 M16.077 189.000 C 16.077 189.642,16.146 189.904,16.230 189.583 C 16.314 189.262,16.314 188.737,16.230 188.417 C 16.146 188.096,16.077 188.358,16.077 189.000 M15.757 193.667 C 15.757 194.492,15.822 194.829,15.902 194.417 C 15.981 194.004,15.981 193.329,15.902 192.917 C 15.822 192.504,15.757 192.842,15.757 193.667 M384.091 193.667 C 384.091 194.492,384.156 194.829,384.235 194.417 C 384.315 194.004,384.315 193.329,384.235 192.917 C 384.156 192.504,384.091 192.842,384.091 193.667 M129.091 199.667 C 129.091 200.492,129.156 200.829,129.235 200.417 C 129.315 200.004,129.315 199.329,129.235 198.917 C 129.156 198.504,129.091 198.842,129.091 199.667 M15.472 205.000 C 15.472 208.392,15.521 209.779,15.582 208.083 C 15.642 206.387,15.642 203.612,15.582 201.917 C 15.521 200.221,15.472 201.608,15.472 205.000 M384.472 205.000 C 384.472 208.392,384.521 209.779,384.582 208.083 C 384.642 206.387,384.642 203.612,384.582 201.917 C 384.521 200.221,384.472 201.608,384.472 205.000 M270.751 200.833 C 270.754 201.567,270.823 201.827,270.902 201.413 C 270.982 200.998,270.979 200.398,270.896 200.079 C 270.812 199.761,270.747 200.100,270.751 200.833 M129.095 209.500 C 129.098 210.417,129.163 210.752,129.239 210.245 C 129.316 209.739,129.314 208.989,129.235 208.579 C 129.156 208.169,129.093 208.583,129.095 209.500 M270.762 210.833 C 270.765 211.750,270.829 212.085,270.906 211.579 C 270.982 211.072,270.980 210.322,270.901 209.912 C 270.822 209.502,270.760 209.917,270.762 210.833 M15.757 216.333 C 15.757 217.158,15.822 217.496,15.902 217.083 C 15.981 216.671,15.981 215.996,15.902 215.583 C 15.822 215.171,15.757 215.508,15.757 216.333 M384.091 216.333 C 384.091 217.158,384.156 217.496,384.235 217.083 C 384.315 216.671,384.315 215.996,384.235 215.583 C 384.156 215.171,384.091 215.508,384.091 216.333 M383.744 221.000 C 383.744 221.642,383.813 221.904,383.896 221.583 C 383.980 221.262,383.980 220.737,383.896 220.417 C 383.813 220.096,383.744 220.358,383.744 221.000 M251.818 258.083 L 250.500 259.500 251.917 258.182 C 252.696 257.458,253.333 256.820,253.333 256.766 C 253.333 256.513,253.043 256.766,251.818 258.083 M149.333 259.833 C 150.514 261.025,151.556 262.000,151.647 262.000 C 151.739 262.000,150.848 261.025,149.667 259.833 C 148.486 258.642,147.444 257.667,147.353 257.667 C 147.261 257.667,148.152 258.642,149.333 259.833 M336.146 330.750 L 335.167 331.833 336.250 330.854 C 336.846 330.316,337.333 329.828,337.333 329.771 C 337.333 329.513,337.058 329.740,336.146 330.750 M70.167 337.000 C 72.177 339.017,73.897 340.667,73.989 340.667 C 74.080 340.667,72.510 339.017,70.500 337.000 C 68.490 334.983,66.770 333.333,66.678 333.333 C 66.586 333.333,68.156 334.983,70.167 337.000 M330.327 336.917 L 327.167 340.167 330.417 337.007 C 333.435 334.072,333.818 333.667,333.577 333.667 C 333.527 333.667,332.065 335.129,330.327 336.917 M76.000 342.438 C 76.000 342.495,76.487 342.983,77.083 343.521 L 78.167 344.500 77.188 343.417 C 76.275 342.407,76.000 342.180,76.000 342.438 " stroke="none" fill="#557f3c" fill-rule="evenodd"></path></g></svg>