<svg id="svg" version="1.1" xmlns="http://www.w3.org/2000/svg" xmlns:xlink="http://www.w3.org/1999/xlink" width="400" height="225" viewBox="0, 0, 400,225"><g id="svgg"><path id="path0" d="M238.791 48.114 C 238.744 55.829,238.675 58.584,238.517 59.083 C 238.400 59.450,238.241 60.012,238.163 60.333 C 237.945 61.223,237.504 62.710,237.347 63.083 C 237.270 63.267,237.068 63.754,236.899 64.167 C 236.126 66.054,234.021 69.037,232.664 70.167 C 232.279 70.487,231.878 70.828,231.774 70.924 C 231.389 71.275,229.059 72.648,228.250 72.999 C 227.792 73.198,227.286 73.429,227.127 73.514 C 226.968 73.598,226.733 73.667,226.605 73.667 C 226.372 73.667,225.339 73.948,224.083 74.353 C 223.562 74.521,219.014 74.592,203.250 74.679 C 190.913 74.747,182.727 74.856,182.167 74.959 C 179.489 75.450,178.341 75.734,177.917 76.012 C 177.825 76.072,177.528 76.174,177.257 76.239 C 176.656 76.383,174.272 77.523,174.194 77.704 C 174.164 77.775,174.038 77.833,173.915 77.833 C 173.791 77.833,173.591 77.932,173.470 78.053 C 173.349 78.173,173.025 78.417,172.750 78.594 C 170.231 80.218,167.801 83.614,166.915 86.750 C 166.760 87.300,166.567 87.938,166.487 88.167 C 165.981 89.619,165.705 124.858,166.179 127.586 C 166.738 130.808,169.317 134.604,172.319 136.623 C 172.831 136.968,173.290 137.304,173.340 137.369 C 173.638 137.766,177.835 139.786,179.333 140.254 C 179.838 140.412,180.588 140.653,181.000 140.791 C 181.412 140.929,182.200 141.149,182.750 141.280 C 183.300 141.411,184.050 141.591,184.417 141.680 C 185.827 142.021,189.169 142.528,192.167 142.855 C 194.716 143.133,207.031 143.131,209.750 142.853 C 212.781 142.542,215.583 142.144,216.917 141.836 C 217.283 141.751,218.108 141.564,218.750 141.420 C 219.863 141.171,222.375 140.448,223.083 140.174 C 225.547 139.219,228.668 137.557,229.817 136.587 C 231.737 134.967,233.387 132.783,233.911 131.167 C 234.075 130.662,234.274 130.078,234.354 129.867 C 234.434 129.657,234.500 125.400,234.500 120.409 L 234.500 111.333 217.333 111.333 L 200.167 111.333 200.167 109.000 L 200.167 106.667 225.250 106.667 C 253.676 106.667,252.801 106.710,256.333 105.139 C 257.546 104.599,257.922 104.405,257.972 104.292 C 258.003 104.223,258.100 104.167,258.189 104.167 C 258.953 104.167,262.946 100.795,263.990 99.268 C 264.123 99.075,264.281 98.879,264.342 98.833 C 264.512 98.707,266.079 96.318,266.365 95.750 C 266.503 95.475,266.753 94.987,266.920 94.667 C 267.491 93.573,267.633 93.250,268.134 91.917 C 268.716 90.366,269.389 88.143,269.672 86.833 C 269.781 86.329,269.937 85.617,270.018 85.250 C 271.399 79.004,271.398 66.692,270.016 59.667 C 269.935 59.254,269.781 58.467,269.674 57.917 C 269.426 56.647,268.748 54.257,268.207 52.750 C 267.547 50.910,266.192 47.965,265.958 47.861 C 265.890 47.831,265.833 47.730,265.833 47.637 C 265.833 46.866,262.087 42.436,260.417 41.231 C 260.050 40.966,259.651 40.656,259.530 40.542 C 259.409 40.427,259.202 40.333,259.071 40.333 C 258.940 40.333,258.833 40.258,258.833 40.167 C 258.833 40.075,258.721 40.000,258.583 40.000 C 258.446 40.000,258.333 39.925,258.333 39.833 C 258.333 39.742,258.260 39.667,258.171 39.667 C 258.082 39.667,257.613 39.481,257.130 39.253 C 256.646 39.026,255.650 38.636,254.917 38.388 L 253.583 37.936 246.219 37.874 L 238.854 37.812 238.791 48.114 M221.304 120.273 C 224.399 121.173,226.158 124.068,225.554 127.269 C 224.512 132.784,217.266 133.946,214.333 129.067 C 213.654 127.938,213.457 124.786,214.000 123.734 C 214.600 122.571,215.083 121.991,216.275 121.000 C 217.290 120.155,219.701 119.807,221.304 120.273 " stroke="none" fill="#fcd444" fill-rule="evenodd"></path><path id="path1" d="M194.500 2.352 C 193.537 2.427,192.225 2.520,191.583 2.558 C 189.754 2.666,186.827 2.993,185.973 3.185 C 185.546 3.281,185.021 3.379,184.807 3.404 C 183.935 3.503,180.572 4.216,180.417 4.334 C 180.325 4.404,179.987 4.515,179.667 4.579 C 178.925 4.729,177.730 5.121,177.279 5.363 C 177.087 5.465,176.815 5.559,176.674 5.572 C 175.697 5.659,170.450 8.669,170.217 9.275 C 170.170 9.399,170.057 9.500,169.966 9.500 C 169.740 9.500,168.667 10.588,168.667 10.817 C 168.667 10.918,168.598 11.000,168.514 11.000 C 168.429 11.000,168.197 11.264,167.997 11.588 C 167.797 11.911,167.545 12.267,167.436 12.379 C 167.191 12.633,166.306 14.667,166.442 14.667 C 166.496 14.667,166.462 14.761,166.367 14.877 C 166.212 15.063,165.911 16.911,165.945 17.458 C 165.952 17.573,165.968 21.342,165.979 25.833 L 166.000 34.000 183.167 34.000 L 200.333 34.000 200.348 34.375 C 200.394 35.563,200.357 38.698,200.296 38.759 C 200.257 38.799,188.766 38.833,174.761 38.834 C 157.478 38.837,149.049 38.894,148.524 39.014 C 145.286 39.751,145.516 39.676,143.417 40.684 C 141.865 41.429,140.450 42.269,139.698 42.891 C 139.037 43.438,136.614 45.833,136.722 45.833 C 136.775 45.833,136.625 46.040,136.390 46.292 C 136.155 46.544,135.732 47.087,135.451 47.500 C 135.169 47.913,134.896 48.288,134.844 48.333 C 134.663 48.494,133.000 51.667,133.000 51.852 C 133.000 51.929,132.819 52.387,132.598 52.870 C 131.880 54.440,130.827 57.902,130.582 59.500 C 130.547 59.729,130.435 60.367,130.333 60.917 C 130.232 61.467,130.118 62.189,130.080 62.521 C 130.042 62.854,129.937 63.454,129.848 63.855 C 129.485 65.481,129.325 74.210,129.586 78.167 C 129.650 79.129,129.702 80.067,129.702 80.250 C 129.703 80.433,129.771 81.003,129.854 81.517 C 129.938 82.030,130.037 82.780,130.074 83.184 C 130.112 83.587,130.227 84.367,130.330 84.917 C 130.433 85.467,130.547 86.104,130.582 86.333 C 130.713 87.188,131.140 89.089,131.292 89.500 C 131.343 89.638,131.396 89.825,131.410 89.917 C 131.424 90.008,131.476 90.196,131.526 90.333 C 132.046 91.769,132.207 92.292,132.199 92.531 C 132.193 92.685,132.292 92.897,132.418 93.001 C 132.544 93.106,132.609 93.290,132.562 93.412 C 132.515 93.534,132.557 93.682,132.655 93.743 C 132.753 93.803,132.833 93.964,132.833 94.099 C 132.833 94.351,134.613 98.017,134.808 98.167 C 134.868 98.212,135.062 98.513,135.240 98.833 C 135.624 99.526,136.807 101.060,137.018 101.139 C 137.100 101.169,137.167 101.261,137.167 101.341 C 137.167 101.503,138.852 103.175,139.678 103.833 C 139.966 104.063,140.287 104.328,140.392 104.424 C 140.700 104.704,143.164 106.167,143.328 106.167 C 143.411 106.167,143.689 106.247,143.947 106.345 C 144.206 106.443,144.417 106.505,144.417 106.484 C 144.417 106.462,144.590 106.537,144.802 106.650 C 145.015 106.764,145.352 106.895,145.552 106.943 C 145.753 106.990,146.217 107.108,146.583 107.204 C 146.982 107.310,150.112 107.404,154.375 107.440 L 161.500 107.499 161.529 98.083 C 161.565 86.549,161.491 87.763,162.351 84.500 C 162.532 83.813,162.709 83.128,162.743 82.979 C 162.778 82.830,162.980 82.342,163.191 81.896 C 163.403 81.449,163.584 81.008,163.594 80.917 C 163.627 80.595,164.079 79.749,164.288 79.617 C 164.405 79.543,164.500 79.380,164.500 79.254 C 164.500 79.127,164.602 78.922,164.726 78.798 C 164.850 78.674,165.056 78.376,165.184 78.137 C 165.508 77.529,167.510 75.121,167.608 75.219 C 167.653 75.264,167.933 75.064,168.231 74.775 C 168.844 74.181,169.284 73.868,169.708 73.726 C 169.869 73.672,170.000 73.562,170.000 73.481 C 170.000 73.400,170.106 73.333,170.236 73.333 C 170.366 73.333,170.497 73.277,170.528 73.208 C 170.611 73.022,172.742 72.000,173.049 72.000 C 173.194 72.000,173.360 71.925,173.417 71.833 C 173.473 71.742,173.698 71.667,173.917 71.667 C 174.135 71.667,174.354 71.602,174.403 71.522 C 174.491 71.379,175.781 71.089,176.061 71.149 C 176.141 71.166,176.469 71.093,176.791 70.986 C 177.917 70.615,185.543 70.489,206.468 70.496 C 214.866 70.499,216.994 70.457,216.895 70.292 C 216.809 70.150,216.859 70.156,217.051 70.312 C 217.279 70.496,217.479 70.503,218.103 70.346 C 218.527 70.239,218.909 70.187,218.952 70.230 C 218.995 70.273,219.317 70.207,219.667 70.083 C 220.017 69.960,220.341 69.896,220.386 69.942 C 220.432 69.987,220.691 69.910,220.963 69.769 C 221.235 69.628,221.497 69.552,221.544 69.600 C 221.667 69.722,222.879 69.195,223.033 68.952 C 223.131 68.799,223.162 68.798,223.164 68.948 C 223.166 69.092,223.293 69.081,223.625 68.908 C 223.877 68.776,224.174 68.668,224.286 68.668 C 224.643 68.666,227.056 67.253,227.557 66.753 C 227.709 66.601,227.833 66.522,227.833 66.578 C 227.833 66.823,230.234 64.522,230.842 63.694 C 231.066 63.388,231.340 63.041,231.450 62.922 C 231.561 62.803,231.604 62.660,231.548 62.603 C 231.491 62.546,231.532 62.500,231.639 62.500 C 231.746 62.500,231.833 62.394,231.833 62.264 C 231.833 62.134,231.906 62.003,231.995 61.972 C 232.084 61.942,232.178 61.729,232.203 61.500 C 232.229 61.271,232.378 60.987,232.535 60.870 C 232.692 60.753,232.869 60.397,232.929 60.079 C 232.988 59.760,233.104 59.500,233.185 59.500 C 233.267 59.500,233.333 59.317,233.333 59.093 C 233.333 58.869,233.404 58.643,233.489 58.590 C 233.575 58.537,233.646 58.364,233.647 58.205 C 233.648 58.046,233.729 57.579,233.827 57.167 C 233.926 56.754,234.045 56.088,234.092 55.686 C 234.139 55.285,234.244 54.497,234.326 53.936 C 234.600 52.064,234.539 19.613,234.260 18.167 C 233.955 16.590,233.065 14.137,232.687 13.833 C 232.537 13.713,232.192 13.144,232.002 12.704 C 231.912 12.495,231.725 12.281,231.586 12.228 C 231.447 12.175,231.333 12.043,231.333 11.936 C 231.333 11.829,231.202 11.624,231.042 11.481 C 230.881 11.338,230.594 11.040,230.404 10.819 C 229.520 9.789,226.395 7.442,226.129 7.607 C 226.058 7.651,226.000 7.608,226.000 7.512 C 226.000 7.339,224.865 6.758,224.625 6.808 C 224.556 6.822,224.500 6.758,224.500 6.667 C 224.500 6.575,224.394 6.500,224.264 6.500 C 224.133 6.500,223.815 6.386,223.555 6.247 C 223.171 6.041,222.488 5.749,222.000 5.583 C 221.751 5.498,221.190 5.271,220.746 5.076 C 220.469 4.953,220.056 4.816,219.829 4.770 C 219.602 4.724,218.892 4.528,218.250 4.336 C 217.608 4.144,216.896 3.953,216.667 3.911 C 216.438 3.870,215.912 3.763,215.500 3.674 C 214.540 3.466,212.705 3.136,212.167 3.074 C 211.938 3.048,211.075 2.940,210.250 2.834 C 209.425 2.728,208.225 2.611,207.583 2.573 C 206.942 2.534,205.445 2.428,204.258 2.335 C 201.785 2.142,197.064 2.150,194.500 2.352 M182.667 13.449 C 182.896 13.564,183.346 13.774,183.667 13.915 C 184.604 14.329,186.953 16.833,186.404 16.833 C 186.343 16.833,186.380 16.938,186.486 17.066 C 187.278 18.020,186.950 21.244,185.919 22.646 C 182.677 27.055,176.396 26.026,174.852 20.833 C 174.356 19.166,174.807 16.801,175.829 15.708 C 176.022 15.502,176.143 15.333,176.097 15.333 C 176.052 15.333,176.203 15.146,176.432 14.917 C 176.661 14.688,176.920 14.500,177.008 14.500 C 177.095 14.500,177.167 14.434,177.167 14.354 C 177.167 14.194,178.620 13.525,179.417 13.317 C 180.153 13.126,182.186 13.209,182.667 13.449 " stroke="none" fill="#3474a4" fill-rule="evenodd"></path><path id="path2" d="M129.372 70.833 C 129.372 71.154,129.406 71.285,129.448 71.125 C 129.490 70.965,129.490 70.702,129.448 70.542 C 129.406 70.381,129.372 70.512,129.372 70.833 M184.720 70.625 C 186.811 70.651,190.186 70.651,192.220 70.625 C 194.253 70.598,192.542 70.577,188.417 70.577 C 184.292 70.577,182.628 70.598,184.720 70.625 M200.958 70.625 C 203.731 70.651,208.269 70.651,211.042 70.625 C 213.815 70.599,211.546 70.578,206.000 70.578 C 200.454 70.578,198.185 70.599,200.958 70.625 M167.083 75.667 C 166.820 75.942,166.675 76.163,166.760 76.157 C 166.907 76.149,167.766 75.167,167.627 75.167 C 167.592 75.167,167.347 75.392,167.083 75.667 M202.750 150.262 C 202.416 150.342,199.061 151.377,198.250 151.649 L 197.417 151.929 197.374 177.715 L 197.332 203.500 200.166 203.500 L 203.000 203.500 203.000 190.600 L 203.000 177.699 203.958 177.058 C 205.037 176.337,205.104 176.298,206.833 175.386 C 212.252 172.530,216.503 173.398,218.088 177.685 C 218.237 178.088,218.447 178.567,218.554 178.750 C 218.698 178.995,218.763 182.319,218.798 191.292 L 218.846 203.500 221.766 203.500 L 224.686 203.500 224.618 190.708 C 224.548 177.391,224.560 177.624,223.862 175.947 C 223.755 175.689,223.667 175.446,223.667 175.408 C 223.667 174.595,220.840 171.576,219.389 170.839 C 215.372 168.798,208.691 169.719,203.830 172.984 L 203.083 173.485 203.000 161.854 C 202.945 154.226,202.859 150.236,202.750 150.262 M300.833 158.413 C 300.833 158.819,300.869 158.833,301.917 158.833 L 303.000 158.833 303.000 161.917 L 303.000 165.000 303.583 165.000 L 304.167 165.000 304.167 161.917 L 304.167 158.833 305.345 158.833 C 306.471 158.833,306.521 158.817,306.470 158.458 C 306.417 158.089,306.377 158.083,303.625 158.038 L 300.833 157.992 300.833 158.413 M307.278 158.111 C 307.217 158.172,307.167 159.747,307.167 161.611 L 307.167 165.000 307.667 165.000 L 308.167 165.000 308.179 162.458 L 308.191 159.917 308.944 162.250 C 309.358 163.533,309.725 164.677,309.760 164.792 C 309.794 164.906,310.080 165.000,310.394 165.000 L 310.965 165.000 311.808 162.458 L 312.650 159.917 312.658 162.458 L 312.667 165.000 313.167 165.000 L 313.667 165.000 313.667 161.490 L 313.667 157.980 313.042 158.032 C 312.434 158.082,312.406 158.114,312.038 159.167 C 311.352 161.126,311.019 162.071,310.703 162.954 L 310.391 163.825 309.931 162.288 C 309.678 161.442,309.335 160.337,309.169 159.833 C 309.003 159.329,308.820 158.710,308.763 158.458 C 308.662 158.008,307.624 157.765,307.278 158.111 M183.667 158.934 C 183.117 159.174,182.655 159.340,180.000 160.253 L 178.917 160.625 178.872 165.313 L 178.828 170.000 176.914 170.000 L 175.000 170.000 175.000 171.570 C 175.000 173.791,174.880 173.667,177.018 173.667 L 178.833 173.667 178.837 184.792 C 178.840 196.890,178.885 197.601,179.751 199.435 C 180.554 201.136,182.343 202.631,184.601 203.490 C 185.147 203.698,188.740 204.158,189.167 204.074 C 189.304 204.048,189.735 204.020,190.125 204.013 L 190.833 204.000 190.833 202.508 L 190.833 201.015 190.292 200.931 C 189.994 200.884,189.487 200.813,189.167 200.772 C 186.891 200.482,185.654 199.625,185.004 197.890 C 184.677 197.015,184.667 196.629,184.667 185.327 L 184.667 173.667 187.750 173.667 L 190.833 173.667 190.833 171.833 L 190.833 170.000 187.750 170.000 L 184.667 170.000 184.667 164.333 C 184.667 158.151,184.726 158.472,183.667 158.934 M117.083 169.512 C 116.075 169.679,114.987 169.889,114.667 169.978 C 112.525 170.577,112.432 170.613,110.297 171.675 C 108.696 172.472,108.188 172.828,106.875 174.072 L 105.832 175.060 105.874 197.057 L 105.917 219.053 107.500 219.619 C 110.164 220.572,111.411 220.998,111.542 220.999 C 111.610 220.999,111.667 216.566,111.667 211.146 C 111.667 203.064,111.706 201.325,111.884 201.473 C 112.171 201.711,114.593 202.895,115.333 203.159 C 115.654 203.273,116.067 203.428,116.250 203.502 C 121.266 205.527,128.169 203.724,131.253 199.583 C 131.527 199.217,131.844 198.818,131.958 198.696 C 132.073 198.575,132.167 198.369,132.167 198.238 C 132.167 198.107,132.242 198.000,132.333 198.000 C 132.425 198.000,132.500 197.887,132.500 197.750 C 132.500 197.612,132.575 197.500,132.667 197.500 C 132.758 197.500,132.833 197.425,132.833 197.333 C 132.833 197.240,133.014 196.790,133.236 196.331 C 134.770 193.150,135.392 187.820,134.753 183.321 C 134.473 181.347,134.165 179.828,133.995 179.583 C 133.932 179.492,133.836 179.184,133.783 178.900 C 133.729 178.616,133.493 177.964,133.259 177.452 C 133.025 176.940,132.833 176.442,132.833 176.344 C 132.833 176.246,132.777 176.166,132.708 176.165 C 132.640 176.164,132.434 175.845,132.251 175.456 C 132.069 175.068,131.844 174.663,131.751 174.556 C 131.659 174.450,131.212 173.879,130.757 173.288 C 128.071 169.793,123.313 168.479,117.083 169.512 M144.167 169.932 C 143.021 170.329,141.840 170.738,141.542 170.840 L 141.000 171.026 141.001 183.055 C 141.003 198.176,140.988 198.078,143.624 200.707 C 144.786 201.866,145.783 202.583,146.917 203.073 C 147.283 203.232,147.699 203.421,147.841 203.494 C 150.539 204.885,157.327 204.111,163.458 201.712 C 163.973 201.511,163.612 208.224,162.991 210.417 C 162.136 213.430,159.069 215.606,154.417 216.498 C 153.867 216.604,153.154 216.755,152.833 216.835 C 152.512 216.915,151.706 217.031,151.042 217.095 C 150.377 217.158,149.833 217.240,149.833 217.276 C 149.833 217.312,149.977 217.921,150.153 218.629 C 150.328 219.337,150.519 220.132,150.578 220.395 L 150.683 220.874 152.050 220.783 C 153.756 220.668,155.638 220.382,156.833 220.055 C 157.337 219.917,158.013 219.739,158.335 219.660 C 161.913 218.780,165.931 215.872,167.239 213.217 C 168.934 209.778,169.167 206.454,169.167 185.725 L 169.167 170.000 166.250 170.000 L 163.333 170.000 163.333 183.652 L 163.333 197.305 162.542 197.789 C 159.470 199.670,156.273 200.520,153.667 200.149 C 152.887 200.039,152.175 199.893,152.083 199.826 C 151.992 199.760,151.677 199.654,151.383 199.591 C 150.224 199.343,148.458 197.927,147.676 196.620 C 146.657 194.915,146.669 195.093,146.668 181.542 C 146.667 171.742,146.623 169.171,146.458 169.188 C 146.344 169.200,145.313 169.535,144.167 169.932 M241.500 169.495 C 240.057 169.829,240.076 169.822,238.042 170.685 C 237.744 170.811,237.500 170.971,237.500 171.041 C 237.500 171.110,237.393 171.167,237.262 171.167 C 237.131 171.167,236.925 171.263,236.804 171.382 C 236.682 171.500,236.397 171.726,236.170 171.883 C 234.673 172.917,232.390 175.695,231.539 177.517 C 230.558 179.617,230.572 179.574,229.901 182.667 C 229.598 184.067,229.598 188.339,229.902 190.000 C 230.634 194.006,231.439 195.951,233.613 198.973 C 233.859 199.314,235.465 200.936,236.044 201.428 C 236.364 201.699,238.160 202.833,238.270 202.833 C 238.323 202.833,238.603 202.937,238.891 203.064 C 243.085 204.904,248.876 204.487,252.876 202.057 C 254.270 201.211,256.538 198.934,257.042 197.875 C 257.140 197.669,257.283 197.500,257.360 197.500 C 257.437 197.500,257.500 197.394,257.500 197.264 C 257.500 197.134,257.556 197.003,257.625 196.972 C 257.956 196.825,259.197 193.878,259.608 192.265 C 260.248 189.754,260.538 184.990,260.168 183.090 C 259.831 181.360,259.492 179.932,259.326 179.542 C 259.238 179.335,259.101 178.998,259.021 178.792 C 258.635 177.798,258.238 177.004,258.125 177.002 C 258.056 177.001,258.000 176.900,258.000 176.777 C 258.000 176.591,257.061 175.160,256.422 174.371 C 253.075 170.237,246.945 168.235,241.500 169.495 M278.486 169.236 C 278.435 169.287,277.799 169.411,277.072 169.511 C 276.345 169.612,275.337 169.807,274.833 169.945 C 274.329 170.083,273.638 170.264,273.298 170.347 C 272.607 170.517,271.178 171.128,269.917 171.795 C 269.458 172.037,268.915 172.313,268.710 172.409 C 268.504 172.505,268.335 172.640,268.335 172.708 C 268.334 172.777,268.237 172.833,268.120 172.833 C 268.002 172.833,267.721 172.979,267.495 173.157 C 267.268 173.336,266.708 173.729,266.250 174.032 L 265.417 174.583 265.374 189.046 L 265.331 203.508 268.086 203.462 L 270.841 203.417 270.841 189.500 L 270.841 175.583 271.275 175.268 C 276.290 171.622,283.474 172.334,285.705 176.698 C 286.652 178.551,286.667 178.776,286.667 191.677 L 286.667 203.500 289.500 203.500 L 292.333 203.500 292.330 190.542 C 292.326 176.625,292.291 175.930,291.494 174.373 C 291.022 173.451,289.168 171.333,288.833 171.333 C 288.755 171.333,288.591 171.237,288.470 171.120 C 287.956 170.622,285.833 169.743,284.498 169.476 C 283.513 169.279,278.638 169.084,278.486 169.236 M122.200 173.148 C 124.165 173.910,124.384 174.043,125.381 175.080 C 129.344 179.198,129.634 192.672,125.863 197.443 C 123.934 199.882,119.859 200.991,117.083 199.832 C 116.900 199.755,116.525 199.646,116.250 199.589 C 115.784 199.492,114.348 198.884,113.583 198.461 C 113.400 198.359,112.894 198.091,112.458 197.864 L 111.667 197.453 111.667 186.513 C 111.667 174.081,111.486 175.444,113.250 174.601 C 114.696 173.911,115.016 173.800,117.333 173.185 C 118.092 172.983,121.705 172.956,122.200 173.148 M246.100 173.149 C 246.366 173.232,247.033 173.431,247.583 173.593 C 252.438 175.022,254.966 181.597,253.914 190.055 C 253.373 194.403,252.582 196.379,250.552 198.447 C 247.830 201.219,242.567 201.274,239.740 198.560 C 234.752 193.770,234.337 180.352,239.027 175.496 C 240.735 173.728,244.226 172.570,246.100 173.149 " stroke="none" fill="#646464" fill-rule="evenodd"></path><path id="path3" d="" stroke="none" fill="#d8d874" fill-rule="evenodd"></path><path id="path4" d="" stroke="none" fill="#d8d874" fill-rule="evenodd"></path></g></svg>